<svg width="1200" height="630" viewBox="0 0 1200 630" xmlns="http://www.w3.org/2000/svg" role="img" aria-labelledby="title desc">
  <title id="title">Morrow.mojo</title>
  <desc id="desc">Human-friendly date and time utilities for Mojo</desc>
  <rect width="1200" height="630" fill="#f8fafc"/>
  <rect x="84" y="84" width="1032" height="462" rx="8" fill="#ffffff" stroke="#cbd5e1" stroke-width="2"/>
  <path fill="#f97316" d="M196 135c4 23 31 33 34 63 3 27-16 44-39 44-24 0-43-18-43-42 0-16 10-31 27-42-1 14 5 23 16 28-6-18-4-36 5-51Z"/>
  <path fill="#ef4444" fill-opacity=".58" d="M164 201c0 15 12 28 28 28 15 0 27-11 27-26 0-15-9-25-23-36 1 18-9 27-18 35-6 5-11 10-14 17Z"/>
  <path fill="#fff7ad" d="M195 177c10 11 16 20 16 31 0 14-10 24-22 24s-22-10-22-23c0-9 6-18 17-27 0 10 4 18 13 23-6-11-6-20-2-28Z"/>
  <text x="288" y="192" fill="#0f172a" font-family="Arial, Helvetica, sans-serif" font-size="76" font-weight="700">Morrow.mojo</text>
  <text x="288" y="260" fill="#334155" font-family="Arial, Helvetica, sans-serif" font-size="34">Human-friendly date and time utilities for Mojo</text>
  <rect x="134" y="330" width="438" height="112" rx="8" fill="#0f172a"/>
  <text x="166" y="378" fill="#e2e8f0" font-family="SFMono-Regular, Consolas, monospace" font-size="28">Morrow.utcnow()</text>
  <text x="166" y="416" fill="#5eead4" font-family="SFMono-Regular, Consolas, monospace" font-size="26">2024-02-29T16:30:00+00:00</text>
  <text x="632" y="377" fill="#0f172a" font-family="Arial, Helvetica, sans-serif" font-size="30" font-weight="700">Parse, format, shift, span</text>
  <text x="632" y="421" fill="#475569" font-family="Arial, Helvetica, sans-serif" font-size="26">A compact Arrow-inspired API for Mojo projects.</text>
</svg>
